REM MD5 2f268e990e2847315597a3e09b66d362
FILE "Master of Monsters - Akatsuki no Kenja-tachi (Japan) (Major Wave).bin" BINARY
  TRACK 01 MODE2/2352
    INDEX 01 00:00:00
  TRACK 02 AUDIO
    INDEX 00 17:18:35
    INDEX 01 17:20:35
  TRACK 03 AUDIO
    INDEX 00 19:18:33
    INDEX 01 19:20:33
  TRACK 04 AUDIO
    INDEX 00 21:05:00
    INDEX 01 21:07:00
  TRACK 05 AUDIO
    INDEX 00 22:40:35
    INDEX 01 22:42:35
  TRACK 06 AUDIO
    INDEX 00 24:00:53
    INDEX 01 24:02:53
REM LEADOUT 27:11:06
